<svg width="163" height="71" viewBox="0 0 163 71" fill="none" xmlns="http://www.w3.org/2000/svg">
<path d="M22.2414 27.5545C36.3543 27.5545 42.9542 24.0617 53.5383 18.4603C54.5046 17.9489 55.5063 17.4188 57.271 16.4985L57.4502 16.4049C60.089 15.0278 62.3242 13.8616 64.7323 15.1276C67.2147 16.4329 67.3289 18.2824 67.4931 20.9584L67.5306 21.5363C67.574 22.1834 67.7478 22.7606 68.0483 23.224C68.3205 23.6444 68.7096 23.9885 69.2124 24.222C72.1874 25.6043 76.8087 22.0542 80.1727 19.4693L80.1703 19.4661C80.7697 19.0054 81.3342 18.5717 81.7946 18.234C82.4219 17.7735 83.1674 17.2102 83.9118 16.6474C88.8648 12.9037 93.6633 9.27705 97.6977 11.499C99.0676 12.2533 99.8534 13.3337 100.309 14.945C100.676 16.2413 100.796 17.885 100.866 20.0745C100.905 21.2578 101.173 22.1344 101.589 22.7732C102.04 23.4654 102.702 23.9113 103.443 24.1879C104.364 24.5316 105.461 24.5218 106.624 24.2613C108.067 23.9384 109.591 23.2281 111.025 22.3084L111.375 22.0844C126.36 12.4773 132.783 8.35982 147.925 8.02407C148.1 8.02032 149.875 8.0169 152.153 8.01445L162.305 7.99994V11.4495L152.153 11.4507C149.916 11.4531 148.17 11.4566 147.992 11.4605C133.836 11.7744 127.655 15.7366 113.234 24.9817L112.885 25.2056C111.143 26.3226 109.238 27.1974 107.365 27.6166C105.587 28.015 103.832 28.0015 102.244 27.4086C100.862 26.8928 99.6052 26.0271 98.7054 24.6464C97.9644 23.5094 97.4901 22.0485 97.4301 20.1824C97.3684 18.2651 97.2717 16.8569 96.9942 15.8748C96.8054 15.2077 96.5172 14.7806 96.0401 14.5177C93.9588 13.3716 90.0358 16.3367 85.9871 19.3968C85.3114 19.9078 84.6276 20.4242 83.8294 21.0101C83.3065 21.3938 82.8038 21.7799 82.2723 22.1884H82.2657C78.2029 25.3103 72.6188 29.6013 67.7703 27.3486C66.6554 26.8308 65.7844 26.0545 65.1642 25.0973C64.5353 24.1267 64.1764 22.9887 64.0942 21.7656L64.0567 21.1606C63.9631 19.6337 63.8979 18.5777 63.1287 18.1731C62.3113 17.7436 60.8111 18.5263 59.0401 19.4506L58.8608 19.5442C58.023 19.9809 56.5506 20.7603 55.1415 21.5058C44.087 27.3562 37.1936 31.0043 22.2412 31.0043V27.5547L22.2414 27.5545Z" fill="url(#paint0_linear_38_3865)"/>
<path d="M78.6152 36.6315H82.0634V52.9792H78.6152V36.6315Z" fill="#194563"/>
<path d="M78.2412 31.5322C78.2412 30.9773 78.4454 30.5009 78.8537 30.0978C79.2672 29.6949 79.7489 29.4906 80.3142 29.4906C80.8691 29.4906 81.3453 29.6949 81.7484 30.0978C82.1513 30.5009 82.3556 30.9774 82.3556 31.5322C82.3556 32.0923 82.1513 32.5738 81.7484 32.9767C81.3453 33.3748 80.869 33.5737 80.3142 33.5737C79.7487 33.5737 79.2672 33.3748 78.8537 32.9767C78.4454 32.5738 78.2412 32.0921 78.2412 31.5322Z" fill="#194563"/>
<path d="M86.7484 52.9793V36.6315H90.1965V39.3424C91.1768 38.2473 92.0691 37.4426 92.8668 36.9222C93.6647 36.4014 94.5571 36.1446 95.5373 36.1446C97.0044 36.1446 98.2619 36.6315 99.3031 37.6115C100.344 38.592 100.865 39.7683 100.865 41.1477V52.9791H97.4168V42.1479C97.4168 41.2557 97.1329 40.5255 96.5581 39.9371C95.9902 39.3556 95.2666 39.0651 94.3879 39.0651C93.2451 39.0651 92.265 39.552 91.4333 40.5253C90.6084 41.4989 90.1962 42.6751 90.1962 44.0545V52.9788H86.748L86.7484 52.9793Z" fill="#194563"/>
<path d="M118.916 29.0132L122.283 27.2607V52.9791H118.916V49.5714C117.287 52.1408 115.157 53.4252 112.52 53.4252C110.391 53.4252 108.565 52.5734 107.044 50.8627C105.523 49.159 104.759 47.1106 104.759 44.7173C104.759 42.3713 105.536 40.3632 107.091 38.6731C108.64 36.9896 110.492 36.1444 112.642 36.1444C113.933 36.1444 115.13 36.5027 116.245 37.2127C117.361 37.9292 118.253 38.8557 118.916 40.0048L118.916 29.0132ZM118.738 44.7513C118.738 41.7069 116.831 39.3087 113.852 39.3087C112.311 39.3087 111.006 39.836 109.938 40.8906C108.863 41.9453 108.328 43.2299 108.328 44.7513C108.328 46.2116 108.876 47.4894 109.965 48.578C111.053 49.673 112.324 50.2209 113.778 50.2209C116.858 50.2209 118.738 47.7958 118.738 44.7513Z" fill="#194563"/>
<path d="M143.521 45.4342H129.567C129.871 47.1243 130.561 48.3549 131.636 49.1324C132.717 49.9098 133.887 50.3019 135.158 50.3019C137.112 50.3019 138.755 49.4907 140.073 47.868L142.588 49.7679C140.702 52.2086 138.173 53.4254 135.003 53.4254C132.569 53.4254 130.54 52.5938 128.897 50.9238C127.261 49.2608 126.443 47.1918 126.443 44.7175C126.443 42.3984 127.275 40.3971 128.931 38.6934C130.588 36.9964 132.609 36.1446 135.003 36.1446C137.355 36.1446 139.37 37.0034 141.047 38.7274C142.723 40.4514 143.548 42.6891 143.521 45.4342ZM129.932 42.6756H139.952C138.836 40.431 137.193 39.3088 135.023 39.3088C132.65 39.3088 130.953 40.431 129.932 42.6756Z" fill="#194563"/>
<path d="M146.287 36.6315H150.465L154.109 41.3099L157.706 36.6315H161.823L156.131 44.0212L163 52.9792H158.876L154.049 46.7119L149.221 52.9792H145.151L152.027 44.0212L146.287 36.6315Z" fill="#194563"/>
<path d="M22.2285 36.6316H25.6767V45.8399C25.6767 48.6795 26.9207 50.0992 29.4154 50.0992C30.524 50.0992 31.4031 49.7207 32.0521 48.9636C32.6944 48.1996 33.0191 47.1583 33.0191 45.8401V36.6318H36.4672V46.3942C36.4672 48.4429 35.798 50.1264 34.4592 51.4449C33.1272 52.7631 31.4168 53.4257 29.3413 53.4257C27.2183 53.4257 25.5077 52.7631 24.1964 51.4449C22.8847 50.1264 22.2288 48.4025 22.2288 46.2727V36.6319L22.2285 36.6316Z" fill="#194563"/>
<path d="M16.7621 31.1193H8.39727C7.22093 31.1193 6.21108 31.4517 5.53567 32.0563C4.99984 32.5359 4.67486 33.2289 4.67486 34.0931C4.67486 34.9908 4.9038 35.6784 5.37897 36.1671C5.97725 36.7825 6.97666 37.2238 8.40004 37.5072C8.87227 37.6011 9.41479 37.7128 9.90398 37.8149L12.2247 38.3018C14.9361 38.8805 16.5319 39.8374 17.4933 41.0817C18.5496 42.4493 18.7668 43.9567 18.7668 45.6189C18.7668 48.1055 17.8812 50.0011 16.346 51.3314C14.8463 52.6312 12.7504 53.3061 10.3066 53.3933C9.63313 53.4173 8.99881 53.4077 8.40836 53.3643C6.0803 53.1927 4.0968 52.5168 2.63918 51.3084C1.04376 49.9858 0.0960382 48.0964 0.00765784 45.6127C-0.00343048 45.3099 -0.0024521 45.0127 0.0104299 44.7223H3.326C3.30545 45.007 3.29893 45.2563 3.30643 45.4688C3.35176 46.7447 3.82416 47.7035 4.61828 48.3618C5.55018 49.1344 6.92758 49.5745 8.61529 49.699C9.13774 49.7374 9.66868 49.7471 10.203 49.728C11.9582 49.6654 13.3899 49.2438 14.3147 48.4424C15.0377 47.8161 15.4551 46.8814 15.4551 45.6189C15.4551 44.7327 15.3746 43.974 14.9837 43.468C14.4976 42.839 13.4941 42.313 11.6037 41.9097L9.29591 41.4228L7.81774 41.1151C5.76347 40.706 4.21747 39.9628 3.14076 38.8552C1.94077 37.6208 1.36304 36.0452 1.36304 34.0933C1.36304 32.0353 2.15618 30.3678 3.46574 29.196C4.73226 28.0626 6.47231 27.4398 8.39711 27.4398H16.7619V31.1195L16.7621 31.1193Z" fill="#194563"/>
<path d="M72.6112 39.7934H66.8592C66.1839 39.7934 65.6346 39.9464 65.2861 40.2409C65.0475 40.4429 64.8993 40.7483 64.8822 41.1514C64.8686 41.473 64.9619 41.7703 65.1809 42.0065C65.4764 42.3248 65.9827 42.5854 66.7354 42.7514L69.5972 43.3828C71.4124 43.7502 72.4224 44.2982 73.0347 45.0594C73.769 45.9724 73.8322 46.8772 73.8438 47.9887L73.844 48.0379C73.8484 49.9184 73.0639 51.2403 71.8275 52.0964C70.772 52.8269 69.3873 53.1594 67.936 53.1746L67.8537 53.1751C66.406 53.1785 65.1496 53.0189 64.1133 52.695C62.9523 52.3324 62.0282 51.7563 61.3711 50.9651L63.4994 48.7895C63.7817 49.1296 64.2532 49.4006 64.8944 49.6009C65.6856 49.8479 66.678 49.9699 67.8481 49.9676L67.9137 49.9671C68.858 49.9573 69.7144 49.7718 70.2996 49.3669C70.7022 49.0879 70.9579 48.6561 70.9578 48.0412L70.9576 48.0136C70.9532 47.5949 70.945 47.2732 70.8839 47.197C70.7003 46.9689 70.1886 46.7618 69.0879 46.5394C68.4844 46.4174 67.1044 46.1118 66.4639 45.9703L66.1805 45.9077C64.8466 45.6133 63.8539 45.0483 63.1663 44.3077C62.3082 43.383 61.9434 42.2351 61.9958 41.0003C62.0565 39.5725 62.619 38.4589 63.5317 37.6873C64.3989 36.954 65.5584 36.5734 66.859 36.5734H72.6111V39.7931L72.6112 39.7934Z" fill="#194563"/>
<path d="M44.4568 60.5979L41.0898 62.3503V36.6319H44.4568V40.0396C46.0863 37.4702 48.216 36.1858 50.8526 36.1858C52.9822 36.1858 54.8077 37.0376 56.3289 38.7482C57.8502 40.4519 58.6141 42.5003 58.6141 44.8937C58.6141 47.2397 57.8366 49.2478 56.2815 50.9378C54.7334 52.6213 52.8808 53.4664 50.7311 53.4664C49.4397 53.4664 48.2429 53.1082 47.1276 52.3984C46.0121 51.6817 45.1195 50.7553 44.4569 49.6062V60.598L44.4568 60.5979ZM44.6353 44.8596C44.6353 47.9042 46.5422 50.3024 49.5207 50.3024C51.0622 50.3024 52.3671 49.775 53.4354 48.7203C54.5101 47.6658 55.0445 46.3812 55.0445 44.8596C55.0445 43.3994 54.4966 42.1216 53.4081 41.033C52.3197 39.9379 51.0486 39.3902 49.5951 39.3902C46.5146 39.3902 44.6352 41.8152 44.6352 44.8596H44.6353Z" fill="#194563"/>
<defs>
<linearGradient id="paint0_linear_38_3865" x1="22.2414" y1="19.5019" x2="162.305" y2="19.5019" gradientUnits="userSpaceOnUse">
<stop stop-color="#F0694C"/>
<stop offset="1" stop-color="#60D486"/>
</linearGradient>
</defs>
</svg>